# xmcd
# 
# Track frame offsets:
#     150
#     14367
#     29952
#     58084
# 
# Disc length: 1245
# 
# Revision: 0
# Processed by: cddbd v1.5.2PL0 Copyright (c) Steve Scherf et al.
# Submitted via: BonkEnc v1.0.6
# 
DISCID=3404db04
DTITLE=Smoke 2 Seven - been there done that
DYEAR=2002
DGENRE=Hip-Hop
TTITLE0=been there done that
TTITLE1=kinda unstuck
TTITLE2=I will I won't
TTITLE3=Data track
EXTD=
EXTT0=
EXTT1=
EXTT2=
EXTT3=
PLAYORDER=
